<svg width="46" height="29" viewBox="0 0 46 29" fill="none" xmlns="http://www.w3.org/2000/svg">
<path d="M0.638 0.388C1.184 0.413999 1.899 0.439999 2.783 0.465999C3.667 0.491998 4.538 0.504998 5.396 0.504998C6.618 0.504998 7.788 0.491998 8.906 0.465999C10.024 0.439999 10.817 0.426999 11.285 0.426999C13.391 0.426999 15.133 0.725999 16.511 1.324C17.915 1.922 18.955 2.741 19.631 3.781C20.333 4.795 20.684 5.939 20.684 7.213C20.684 7.993 20.528 8.825 20.216 9.709C19.904 10.593 19.358 11.425 18.578 12.205C17.824 12.985 16.784 13.635 15.458 14.155C14.132 14.649 12.455 14.896 10.427 14.896H6.683V14.116H10.037C11.883 14.116 13.287 13.83 14.249 13.258C15.237 12.66 15.9 11.88 16.238 10.918C16.602 9.93 16.784 8.838 16.784 7.642C16.784 5.588 16.29 4.002 15.302 2.884C14.34 1.74 12.676 1.168 10.31 1.168C9.114 1.168 8.334 1.389 7.97 1.831C7.606 2.273 7.424 3.17 7.424 4.522V23.866C7.424 24.802 7.502 25.504 7.658 25.972C7.814 26.44 8.113 26.752 8.555 26.908C9.023 27.064 9.699 27.168 10.583 27.22V28C9.985 27.948 9.231 27.922 8.321 27.922C7.437 27.896 6.54 27.883 5.63 27.883C4.616 27.883 3.667 27.896 2.783 27.922C1.899 27.922 1.184 27.948 0.638 28V27.22C1.522 27.168 2.185 27.064 2.627 26.908C3.095 26.752 3.407 26.44 3.563 25.972C3.719 25.504 3.797 24.802 3.797 23.866V4.522C3.797 3.56 3.719 2.858 3.563 2.416C3.407 1.948 3.095 1.636 2.627 1.48C2.185 1.298 1.522 1.194 0.638 1.168V0.388ZM6.839 14.233C8.243 14.285 9.348 14.35 10.154 14.428C10.96 14.48 11.61 14.532 12.104 14.584C12.624 14.636 13.118 14.701 13.586 14.779C15.328 15.065 16.576 15.598 17.33 16.378C18.11 17.132 18.682 18.315 19.046 19.927L20.021 23.905C20.281 25.049 20.541 25.881 20.801 26.401C21.087 26.895 21.516 27.129 22.088 27.103C22.53 27.077 22.894 26.934 23.18 26.674C23.492 26.414 23.817 26.063 24.155 25.621L24.74 26.05C24.194 26.856 23.622 27.48 23.024 27.922C22.452 28.338 21.633 28.546 20.567 28.546C19.605 28.546 18.76 28.26 18.032 27.688C17.304 27.116 16.758 25.998 16.394 24.334L15.536 20.434C15.302 19.316 15.029 18.354 14.717 17.548C14.431 16.716 14.015 16.066 13.469 15.598C12.949 15.13 12.169 14.896 11.129 14.896H6.917L6.839 14.233ZM25.9271 0.388C26.4731 0.413999 27.1881 0.439999 28.0721 0.465999C28.9561 0.491998 29.8271 0.504998 30.6851 0.504998C31.9071 0.504998 33.0771 0.491998 34.1951 0.465999C35.3131 0.439999 36.1061 0.426999 36.5741 0.426999C39.7201 0.426999 42.0731 1.142 43.6331 2.572C45.1931 4.002 45.9731 5.848 45.9731 8.11C45.9731 9.046 45.8171 10.034 45.5051 11.074C45.1931 12.088 44.6471 13.037 43.8671 13.921C43.1131 14.779 42.0731 15.481 40.7471 16.027C39.4211 16.573 37.7441 16.846 35.7161 16.846H31.9721V16.066H35.3261C37.1721 16.066 38.5761 15.715 39.5381 15.013C40.5261 14.311 41.1891 13.388 41.5271 12.244C41.8911 11.1 42.0731 9.865 42.0731 8.539C42.0731 6.069 41.5791 4.223 40.5911 3.001C39.6291 1.779 37.9651 1.168 35.5991 1.168C34.4031 1.168 33.6231 1.389 33.2591 1.831C32.8951 2.273 32.7131 3.17 32.7131 4.522V23.866C32.7131 24.802 32.8041 25.504 32.9861 25.972C33.1941 26.44 33.5841 26.752 34.1561 26.908C34.7281 27.064 35.5601 27.168 36.6521 27.22V28C35.9761 27.948 35.1181 27.922 34.0781 27.922C33.0381 27.896 31.9851 27.883 30.9191 27.883C29.9051 27.883 28.9561 27.896 28.0721 27.922C27.1881 27.922 26.4731 27.948 25.9271 28V27.22C26.8111 27.168 27.4741 27.064 27.9161 26.908C28.3841 26.752 28.6961 26.44 28.8521 25.972C29.0081 25.504 29.0861 24.802 29.0861 23.866V4.522C29.0861 3.56 29.0081 2.858 28.8521 2.416C28.6961 1.948 28.3841 1.636 27.9161 1.48C27.4741 1.298 26.8111 1.194 25.9271 1.168V0.388Z" fill="#57ECC3"/>
</svg>
